<mxfile host="app.diagrams.net" modified="2022-08-14T14:02:00.440Z" agent="5.0 (Macintosh; Intel Mac OS X 10_15_7) AppleWebKit/537.36 (KHTML, like Gecko) Chrome/104.0.0.0 Safari/537.36" etag="z108XQ6Y4fLPb9B-Zpaa" version="20.2.2" type="github">
  <diagram id="uS2YeVrOk95KlgL8rQgl" name="Page-1">
    <mxGraphModel dx="946" dy="620" grid="1" gridSize="10" guides="1" tooltips="1" connect="1" arrows="1" fold="1" page="1" pageScale="1" pageWidth="850" pageHeight="1100" math="0" shadow="0">
      <root>
        <mxCell id="0" />
        <mxCell id="1" parent="0" />
        <mxCell id="yPoAS12U8ccwEEAMWW9Z-1" value="" style="rounded=0;whiteSpace=wrap;html=1;" parent="1" vertex="1">
          <mxGeometry x="320" y="200" width="120" height="240" as="geometry" />
        </mxCell>
        <mxCell id="yPoAS12U8ccwEEAMWW9Z-2" value="MeterProvider" style="text;html=1;align=center;verticalAlign=middle;resizable=0;points=[];autosize=1;strokeColor=none;fillColor=none;" parent="1" vertex="1">
          <mxGeometry x="330" y="165" width="100" height="30" as="geometry" />
        </mxCell>
        <mxCell id="yPoAS12U8ccwEEAMWW9Z-3" value="res&lt;br&gt;Resource" style="rounded=0;whiteSpace=wrap;html=1;" parent="1" vertex="1">
          <mxGeometry x="330" y="210" width="100" height="50" as="geometry" />
        </mxCell>
        <mxCell id="yPoAS12U8ccwEEAMWW9Z-7" style="edgeStyle=orthogonalEdgeStyle;rounded=0;orthogonalLoop=1;jettySize=auto;html=1;exitX=1;exitY=0.5;exitDx=0;exitDy=0;entryX=0;entryY=0.5;entryDx=0;entryDy=0;" parent="1" source="yPoAS12U8ccwEEAMWW9Z-4" target="yPoAS12U8ccwEEAMWW9Z-6" edge="1">
          <mxGeometry relative="1" as="geometry" />
        </mxCell>
        <mxCell id="yPoAS12U8ccwEEAMWW9Z-4" value="meters&lt;br&gt;MeterRegistry" style="rounded=0;whiteSpace=wrap;html=1;" parent="1" vertex="1">
          <mxGeometry x="330" y="280" width="100" height="50" as="geometry" />
        </mxCell>
        <mxCell id="ZxfdVr82QHeCrGe0gJ5T-1" style="edgeStyle=orthogonalEdgeStyle;rounded=0;orthogonalLoop=1;jettySize=auto;html=1;exitX=1;exitY=0.5;exitDx=0;exitDy=0;entryX=0;entryY=0.4;entryDx=0;entryDy=0;entryPerimeter=0;" edge="1" parent="1" source="yPoAS12U8ccwEEAMWW9Z-5" target="yPoAS12U8ccwEEAMWW9Z-8">
          <mxGeometry relative="1" as="geometry" />
        </mxCell>
        <mxCell id="yPoAS12U8ccwEEAMWW9Z-5" value="readers&lt;br&gt;&lt;div style=&quot;background-color: rgb(255, 255, 255); font-family: Menlo, Monaco, &amp;quot;Courier New&amp;quot;, monospace; line-height: 18px;&quot;&gt;&lt;span style=&quot;color: #0000ff;&quot;&gt;map&lt;/span&gt;[Reader][]view.View&lt;/div&gt;" style="rounded=0;whiteSpace=wrap;html=1;" parent="1" vertex="1">
          <mxGeometry x="330" y="350" width="100" height="50" as="geometry" />
        </mxCell>
        <mxCell id="yPoAS12U8ccwEEAMWW9Z-6" value="&lt;div style=&quot;background-color: rgb(255, 255, 255); font-family: Menlo, Monaco, &amp;quot;Courier New&amp;quot;, monospace; line-height: 18px;&quot;&gt;meters &lt;span style=&quot;color: #0000ff;&quot;&gt;map&lt;/span&gt;[instrumentation.Library]*meter&lt;/div&gt;&lt;div style=&quot;background-color: rgb(255, 255, 255); font-family: Menlo, Monaco, &amp;quot;Courier New&amp;quot;, monospace; line-height: 18px;&quot;&gt;&lt;br&gt;&lt;/div&gt;&lt;div style=&quot;background-color: rgb(255, 255, 255); font-family: Menlo, Monaco, &amp;quot;Courier New&amp;quot;, monospace; line-height: 18px;&quot;&gt;&lt;br&gt;&lt;/div&gt;&lt;div style=&quot;background-color: rgb(255, 255, 255); font-family: Menlo, Monaco, &amp;quot;Courier New&amp;quot;, monospace; line-height: 18px;&quot;&gt;&lt;br&gt;&lt;/div&gt;" style="rounded=0;whiteSpace=wrap;html=1;" parent="1" vertex="1">
          <mxGeometry x="480" y="280" width="260" height="100" as="geometry" />
        </mxCell>
        <mxCell id="yPoAS12U8ccwEEAMWW9Z-8" value="&lt;div style=&quot;background-color: rgb(255, 255, 255); font-family: Menlo, Monaco, &amp;quot;Courier New&amp;quot;, monospace; line-height: 18px;&quot;&gt;&lt;span style=&quot;font-family: Helvetica; background-color: rgb(248, 249, 250);&quot;&gt;readers&lt;/span&gt;&lt;br style=&quot;font-family: Helvetica; background-color: rgb(248, 249, 250);&quot;&gt;&lt;div style=&quot;line-height: 18px;&quot;&gt;&lt;span style=&quot;color: rgb(0, 0, 255);&quot;&gt;map&lt;/span&gt;[Reader][]view.View&lt;/div&gt;&lt;div style=&quot;line-height: 18px;&quot;&gt;&lt;br&gt;&lt;/div&gt;&lt;div style=&quot;line-height: 18px;&quot;&gt;&lt;br&gt;&lt;/div&gt;&lt;div style=&quot;line-height: 18px;&quot;&gt;&lt;br&gt;&lt;/div&gt;&lt;/div&gt;" style="rounded=0;whiteSpace=wrap;html=1;" parent="1" vertex="1">
          <mxGeometry x="470" y="510" width="260" height="100" as="geometry" />
        </mxCell>
      </root>
    </mxGraphModel>
  </diagram>
</mxfile>
